<?xml version="1.0" encoding="utf-8"?>
<!-- Generator: Adobe Illustrator 17.0.0, SVG Export Plug-In . SVG Version: 6.00 Build 0)  -->
<!DOCTYPE svg PUBLIC "-//W3C//DTD SVG 1.1//EN" "http://www.w3.org/Graphics/SVG/1.1/DTD/svg11.dtd">
<svg version="1.1" id="Слой_1" xmlns="http://www.w3.org/2000/svg" xmlns:xlink="http://www.w3.org/1999/xlink" x="0px" y="0px"
	 width="66px" height="22px" viewBox="0 0 66 22" enable-background="new 0 0 66 22" xml:space="preserve">
<rect y="-25" fill="#3498DB" width="66" height="22"/>
<g>
	<rect x="22" y="26" fill="#FF459E" width="22" height="22"/>
	<rect y="26" fill="#FF459E" width="22" height="22"/>
	<rect x="44" y="26" fill="#FF459E" width="22" height="22"/>
</g>
<circle fill="none" cx="33" cy="11" r="10.5"/>
<circle fill="none" cx="11" cy="11" r="10.5"/>
<circle fill="none" cx="55" cy="11" r="10.5"/>
<g>
	<path fill="#3498DB" d="M14.5,4.5l-1.8,0c-2,0-3.4,1.3-3.4,3.2v1.5H7.5c-0.2,0-0.3,0.1-0.3,0.3v2.1c0,0.1,0.1,0.3,0.3,0.3h1.8v5.4
		c0,0.1,0.1,0.3,0.3,0.3H12c0.2,0,0.3-0.1,0.3-0.3v-5.4h2.1c0.2,0,0.3-0.1,0.3-0.3l0-2.1c0-0.1,0-0.1-0.1-0.2
		c-0.1,0-0.1-0.1-0.2-0.1h-2.1V7.9c0-0.6,0.2-0.9,1-0.9l1.2,0c0.2,0,0.3-0.1,0.3-0.3v-2C14.8,4.6,14.7,4.5,14.5,4.5z"/>
</g>
<g>
	<g>
		<path fill="#3498DB" d="M35.3,5h-3.1c-1.4,0-2.3,0.3-3.2,0.9C28.4,6.5,28,7.3,28,8c0,1.2,1,2.5,2.8,2.5c0.2,0,0.4,0,0.5,0l0,0.1
			c-0.1,0.2-0.1,0.3-0.1,0.6c0,0.5,0.2,0.8,0.5,1l0,0l-0.1,0c-0.7,0-2.1,0.1-3.2,0.7c-1.2,0.7-1.3,1.6-1.3,1.9
			c0,1.1,1.1,2.2,3.6,2.2c2.9,0,4.4-1.5,4.4-3c0-1.1-0.7-1.6-1.4-2.2l-0.6-0.4c-0.2-0.1-0.4-0.3-0.4-0.7c0-0.3,0.2-0.5,0.4-0.7l0,0
			c0.7-0.5,1.4-1,1.4-2.2c0-1.2-0.8-1.8-1.2-2.1h1c0,0,0,0,0,0l0.9-0.5C35.4,5.1,35.4,5.1,35.3,5C35.4,5,35.3,5,35.3,5z M31.6,16.3
			c-1.8,0-3-0.8-3-1.9c0-0.7,0.5-1.3,1.4-1.6c0.8-0.2,1.8-0.3,1.8-0.3c0.2,0,0.3,0,0.4,0c1.2,0.8,1.8,1.2,1.8,2.1
			C34,15.7,33.1,16.3,31.6,16.3z M31.6,10.1c-1.5,0-2.1-1.8-2.1-2.8c0-0.5,0.1-0.9,0.4-1.2c0.3-0.3,0.7-0.5,1.2-0.5
			c1.4,0,2.1,1.7,2.1,2.9c0,0.2,0,0.8-0.4,1.1C32.4,9.9,32,10.1,31.6,10.1z"/>
		<path fill="#3498DB" d="M38.8,10.7h-1.3V9.5c0,0,0-0.1-0.1-0.1h-0.6c0,0-0.1,0-0.1,0.1v1.2h-1.3c0,0-0.1,0-0.1,0.1v0.5
			c0,0,0,0.1,0.1,0.1h1.3v1.3c0,0,0,0.1,0.1,0.1h0.6c0,0,0.1,0,0.1-0.1v-1.3h1.3c0,0,0.1,0,0.1-0.1L38.8,10.7
			C38.9,10.7,38.8,10.7,38.8,10.7z"/>
	</g>
</g>
<g>
	<g>
		<path fill="#3498DB" d="M62.3,6.8c-0.5,0.2-1.1,0.4-1.7,0.4c0.6-0.3,1.1-0.9,1.3-1.5C61.3,6,60.7,6.3,60,6.4
			c-0.5-0.5-1.3-0.9-2.2-0.9c-1.7,0-3,1.2-3,2.8c0,0.2,0,0.4,0.1,0.6c-2.5-0.1-4.7-1.2-6.2-2.9c-0.3,0.4-0.4,0.9-0.4,1.4
			c0,1,0.5,1.8,1.3,2.3c-0.5,0-1-0.1-1.4-0.3v0c0,1.3,1,2.5,2.4,2.7c-0.3,0.1-0.5,0.1-0.8,0.1c-0.2,0-0.4,0-0.6-0.1
			c0.4,1.1,1.5,1.9,2.8,1.9c-1,0.7-2.3,1.2-3.7,1.2c-0.2,0-0.5,0-0.7,0c1.3,0.8,2.9,1.2,4.6,1.2c5.5,0,8.5-4.2,8.5-7.9l0-0.4
			C61.4,7.8,61.9,7.4,62.3,6.8z"/>
	</g>
</g>
</svg>
