<?xml version="1.0" encoding="utf-8"?>
<!-- Generator: Adobe Illustrator 17.0.0, SVG Export Plug-In . SVG Version: 6.00 Build 0)  -->
<!DOCTYPE svg PUBLIC "-//W3C//DTD SVG 1.1//EN" "http://www.w3.org/Graphics/SVG/1.1/DTD/svg11.dtd">
<svg version="1.1" id="Слой_1" xmlns="http://www.w3.org/2000/svg" xmlns:xlink="http://www.w3.org/1999/xlink" x="0px" y="0px"
	 width="70px" height="70px" viewBox="0 0 70 70" enable-background="new 0 0 70 70" xml:space="preserve">
<rect y="75" fill="#00A4FF" width="70" height="70"/>
<circle fill="none" stroke="#FFFFFF" stroke-width="2" stroke-miterlimit="10" cx="35.2" cy="34.7" r="33.5"/>
<g>
	<path fill="#FFFFFF" d="M8,45.2l7.4-20.3h2.7l7.8,20.3H23L20.8,39h-8l-2.1,6.1H8z M13.5,36.8H20l-2-5.6c-0.6-1.7-1.1-3.1-1.4-4.2
		c-0.2,1.3-0.6,2.6-1,3.9L13.5,36.8z"/>
	<path fill="#FFFFFF" d="M27.8,45.2V24.8H35c1.5,0,2.6,0.2,3.5,0.6c0.9,0.4,1.6,1,2.1,1.9c0.5,0.9,0.8,1.7,0.8,2.7
		c0,0.9-0.2,1.7-0.7,2.5c-0.4,0.8-1.1,1.4-2,1.9c1.2,0.4,2,1,2.7,1.8c0.6,0.9,0.9,1.9,0.9,3.1c0,1-0.2,1.8-0.6,2.7
		c-0.4,0.8-0.8,1.4-1.4,1.9c-0.6,0.4-1.3,0.8-2.1,1s-1.9,0.3-3.1,0.3H27.8z M30.4,33.4h4.1c1.1,0,1.9-0.1,2.4-0.2
		c0.6-0.2,1.1-0.5,1.5-1c0.3-0.5,0.5-1.1,0.5-1.8c0-0.7-0.2-1.3-0.5-1.8s-0.7-0.9-1.3-1.1c-0.6-0.2-1.5-0.3-2.9-0.3h-3.8V33.4z
		 M30.4,42.8h4.8c0.8,0,1.4,0,1.7-0.1c0.6-0.1,1.1-0.3,1.5-0.6c0.4-0.3,0.7-0.6,1-1.1c0.3-0.5,0.4-1.1,0.4-1.7c0-0.8-0.2-1.4-0.5-2
		c-0.4-0.6-0.9-1-1.5-1.2c-0.6-0.2-1.6-0.3-2.8-0.3h-4.4V42.8z"/>
	<path fill="#FFFFFF" d="M59.5,38l2.5,0.7c-0.5,2.2-1.5,3.9-2.9,5.1s-3.1,1.7-5.1,1.7c-2.1,0-3.7-0.4-5-1.3c-1.3-0.9-2.3-2.2-3-3.9
		c-0.7-1.7-1-3.5-1-5.4c0-2.1,0.4-4,1.1-5.5c0.8-1.6,1.8-2.8,3.3-3.6s3-1.2,4.6-1.2c1.9,0,3.5,0.5,4.8,1.6s2.2,2.5,2.7,4.4L59.2,31
		c-0.4-1.5-1.1-2.6-1.9-3.2c-0.8-0.7-1.9-1-3.2-1c-1.5,0-2.7,0.4-3.7,1.1s-1.7,1.8-2.1,3c-0.4,1.3-0.6,2.6-0.6,3.9
		c0,1.7,0.2,3.2,0.7,4.5c0.5,1.3,1.2,2.3,2.2,2.9c1,0.6,2.1,1,3.3,1c1.4,0,2.6-0.4,3.6-1.3C58.5,41,59.1,39.7,59.5,38z"/>
</g>
</svg>
